<?xml version="1.0" standalone="no"?>
<!DOCTYPE svg PUBLIC "-//W3C//DTD SVG 20010904//EN"
 "http://www.w3.org/TR/2001/REC-SVG-20010904/DTD/svg10.dtd">
<svg version="1.0" xmlns="http://www.w3.org/2000/svg"
 width="700.000000pt" height="700.000000pt" viewBox="0 0 700.000000 700.000000"
 preserveAspectRatio="xMidYMid meet">
<metadata>
Created by potrace 1.11, written by Peter Selinger 2001-2013
</metadata>
<g transform="translate(0.000000,700.000000) scale(0.100000,-0.100000)"
fill="#000000" stroke="none">
<path d="M3559 5605 c-3 -2 -40 -6 -84 -10 -44 -4 -91 -8 -105 -10 -14 -2 -53
-6 -87 -9 -68 -6 -173 -17 -213 -21 -14 -1 -56 -6 -95 -10 -38 -4 -77 -9 -85
-10 -8 -2 -44 -6 -80 -10 -36 -4 -67 -8 -70 -10 -3 -2 -26 -6 -50 -10 -170
-24 -349 -65 -545 -126 -444 -139 -814 -350 -1084 -618 -69 -69 -103 -106
-196 -212 -17 -19 -82 -92 -146 -164 -239 -269 -306 -361 -384 -528 -76 -163
-149 -416 -170 -592 -3 -27 -7 -57 -10 -65 -18 -70 -26 -365 -12 -470 4 -30
10 -70 12 -89 2 -19 14 -69 25 -112 54 -208 148 -369 309 -529 200 -199 476
-349 846 -459 107 -32 297 -80 327 -82 4 0 34 -7 65 -14 53 -12 220 -44 268
-50 11 -2 36 -5 55 -8 19 -3 71 -11 115 -17 44 -5 91 -12 105 -14 14 -3 59 -7
100 -11 41 -3 89 -7 105 -9 17 -2 75 -7 130 -11 55 -4 123 -9 150 -11 76 -5
404 -18 460 -17 68 0 343 12 435 18 175 12 211 15 355 30 137 14 162 17 185
21 14 2 59 8 100 14 41 6 86 12 100 15 14 2 43 6 65 10 40 6 227 40 275 50 14
2 50 10 80 16 117 24 334 83 550 149 300 92 431 131 456 136 65 13 188 60 248
96 114 67 284 246 408 428 145 213 247 473 273 700 9 72 9 283 1 340 -7 46
-23 141 -33 195 -21 121 -124 367 -223 535 -43 72 -205 310 -219 320 -4 3 -22
25 -41 50 -79 101 -239 263 -370 374 -468 398 -1073 671 -1705 770 -87 14
-164 26 -195 32 -40 6 -396 15 -401 9z m9 -281 c72 -15 132 -30 132 -33 0 -6
-47 -66 -247 -319 -42 -53 -70 -81 -79 -78 -8 3 -175 56 -372 117 -196 61
-360 113 -364 116 -9 5 58 64 136 123 53 39 104 55 213 65 71 6 134 14 178 20
17 3 73 7 125 11 52 4 97 8 98 9 5 4 12 3 180 -31z m703 -200 c189 -64 345
-117 346 -118 1 -1 -59 -96 -134 -211 -74 -116 -142 -222 -151 -236 l-15 -26
-196 77 c-108 42 -275 107 -372 145 l-176 69 41 52 c95 120 243 301 263 324
13 14 23 28 23 32 0 5 6 8 13 8 8 0 169 -52 358 -116z m-1803 86 c-16 -26 -30
-30 -65 -21 -27 8 -27 8 22 23 28 9 51 16 53 17 1 1 -3 -8 -10 -19z m-284
-141 c125 -28 120 -26 104 -43 -7 -7 -60 -62 -118 -122 -133 -138 -231 -248
-310 -347 -55 -69 -66 -77 -89 -73 -31 6 -207 37 -236 41 -11 2 -33 6 -50 9
-16 3 -55 10 -85 16 -30 6 -65 12 -77 14 -11 3 -43 8 -69 12 l-47 7 39 34 c21
19 59 51 84 71 25 20 47 39 50 42 15 16 198 134 275 178 98 55 328 167 360
175 40 10 80 7 169 -14z m447 -125 c79 -25 225 -72 324 -103 99 -32 208 -66
242 -77 35 -10 63 -23 63 -28 0 -4 -15 -27 -32 -50 -18 -22 -36 -45 -40 -51
-5 -5 -36 -46 -71 -90 -35 -44 -85 -109 -112 -145 -27 -36 -52 -67 -55 -70 -3
-3 -30 -38 -59 -77 -30 -40 -56 -73 -58 -73 -2 0 -99 32 -216 71 -117 38 -304
95 -417 126 -113 30 -206 56 -207 57 -2 2 14 25 35 53 41 54 100 122 293 334
47 52 101 111 120 132 19 20 36 37 40 37 3 0 70 -21 150 -46z m2574 -214 c154
-78 282 -144 284 -146 2 -2 -16 -36 -40 -76 -24 -40 -53 -89 -64 -109 -75
-134 -211 -359 -216 -359 -3 0 -37 24 -76 53 -39 28 -81 59 -93 67 -12 8 -39
26 -59 41 -65 46 -214 135 -323 193 l-107 57 23 37 c13 20 66 102 118 182 52
80 111 171 131 202 l36 57 53 -28 c29 -16 179 -92 333 -171z m-1618 -114 c65
-29 224 -99 353 -156 129 -56 239 -106 244 -111 5 -4 -6 -31 -26 -61 -19 -29
-97 -152 -173 -273 -76 -121 -146 -228 -155 -238 -17 -18 -20 -18 -86 13 -38
18 -85 39 -104 47 -45 20 -434 195 -528 239 l-72 33 51 73 c57 79 311 420 319
428 3 3 13 17 23 33 10 15 22 27 26 27 5 0 63 -24 128 -54z m2265 -263 c205
-141 194 -133 238 -168 45 -35 62 -56 137 -168 90 -135 238 -457 256 -558 3
-13 9 -42 15 -64 40 -154 28 -391 -28 -570 -66 -212 -189 -431 -334 -597 -128
-147 -175 -176 -386 -245 -639 -208 -1041 -308 -1520 -378 -58 -8 -83 -12
-150 -20 -30 -4 -62 -9 -70 -10 -8 -2 -53 -6 -100 -10 -47 -3 -96 -8 -110 -10
-24 -3 -157 -14 -265 -21 -68 -4 -617 -4 -680 0 -70 5 -223 17 -265 21 -19 2
-64 6 -100 10 -86 8 -237 26 -325 40 -16 3 -48 7 -70 10 -164 22 -493 95 -680
152 -320 97 -601 243 -753 394 -139 136 -256 372 -289 582 -18 109 -5 316 32
532 49 284 143 510 291 705 158 208 360 440 383 440 5 0 54 -9 108 -19 54 -11
125 -24 158 -30 81 -15 141 -27 230 -46 6 -1 31 -5 57 -9 l48 -8 -36 -62
c-113 -194 -227 -469 -267 -642 l-14 -62 35 -16 c19 -10 38 -13 43 -9 4 4 98
168 209 363 112 195 208 361 215 368 8 10 18 10 36 3 13 -5 98 -33 189 -61
232 -73 604 -192 612 -196 3 -2 -15 -37 -41 -77 -182 -277 -344 -594 -446
-872 l-33 -91 37 -21 36 -21 52 77 c28 42 108 166 179 276 321 505 424 657
437 652 7 -3 181 -76 387 -162 206 -87 383 -160 392 -164 15 -5 10 -18 -32
-91 -27 -47 -55 -97 -61 -112 -6 -16 -15 -28 -20 -28 -5 0 -9 -4 -9 -10 0 -8
-89 -164 -213 -375 -44 -74 -110 -206 -121 -240 -5 -16 1 -25 25 -39 l31 -18
28 28 c15 16 89 121 165 234 76 113 162 239 190 280 29 41 84 123 124 182 l72
107 248 -123 c299 -150 350 -172 422 -180 54 -6 57 -5 63 18 3 13 8 31 12 39
5 13 -18 31 -91 72 -70 39 -545 327 -545 330 0 6 370 558 385 573 10 11 48 -6
206 -93 107 -59 219 -121 249 -137 126 -70 250 -139 250 -141 0 -2 -13 -27
-28 -57 -182 -350 -267 -523 -287 -587 -27 -83 -25 -94 25 -111 l28 -10 222
333 c168 253 226 332 238 328 8 -4 38 -17 66 -31 48 -23 50 -23 64 -5 33 45
33 48 -19 107 -28 31 -49 59 -47 64 2 4 49 84 105 178 56 94 128 223 159 287
47 96 59 115 73 107 9 -4 87 -57 173 -117z"/>
<path d="M5250 2881 c-81 -25 -233 -141 -266 -203 -18 -35 -18 -101 0 -137 29
-55 145 -136 265 -185 45 -18 63 -21 91 -13 82 21 127 84 109 151 -12 43 -77
113 -120 128 -32 11 -30 20 16 72 32 37 40 69 29 114 -14 54 -72 88 -124 73z"/>
<path d="M2713 2661 c-32 -20 -59 -63 -57 -91 5 -64 43 -108 137 -155 l56 -28
-52 -36 c-64 -45 -97 -93 -97 -140 1 -111 102 -156 222 -99 66 31 216 138 259
185 70 75 52 175 -46 261 -81 71 -180 108 -315 118 -64 4 -80 2 -107 -15z"/>
<path d="M4334 2193 c-12 -2 -41 -24 -65 -48 -48 -49 -61 -52 -133 -30 -71 22
-110 19 -144 -10 -58 -48 -44 -122 32 -174 69 -48 121 -64 188 -57 86 8 125
29 195 104 65 68 84 108 73 151 -11 45 -82 76 -146 64z"/>
</g>
</svg>
